<svg width="80" height="80" viewBox="0 0 80 80" fill="none" xmlns="http://www.w3.org/2000/svg">
<circle cx="40" cy="40" r="40" fill="#50B49F" fill-opacity="0.1"/>
<path d="M55.0773 26H25.9227C24.3064 26 23 27.3064 23 28.9167V50.3056C23 51.9158 24.3064 53.2222 25.9227 53.2222H55.0773C56.6936 53.2222 58 51.9158 58 50.3056V28.9167C58 27.3064 56.6936 26 55.0773 26ZM26.2873 28.9167H54.7127C54.9132 28.9167 55.0773 29.0807 55.0773 29.2812V31.8333H25.9227V29.2812C25.9227 29.0807 26.0868 28.9167 26.2873 28.9167ZM54.7127 50.3056H26.2873C26.0868 50.3056 25.9227 50.1415 25.9227 49.941V39.6111H55.0773V49.941C55.0773 50.1415 54.9132 50.3056 54.7127 50.3056ZM34.6667 44.2292V46.6597C34.6667 47.0608 34.3385 47.3889 33.9375 47.3889H29.5625C29.1615 47.3889 28.8333 47.0608 28.8333 46.6597V44.2292C28.8333 43.8281 29.1615 43.5 29.5625 43.5H33.9375C34.3385 43.5 34.6667 43.8281 34.6667 44.2292ZM46.3333 44.2292V46.6597C46.3333 47.0608 46.0052 47.3889 45.6042 47.3889H37.3403C36.9392 47.3889 36.6111 47.0608 36.6111 46.6597V44.2292C36.6111 43.8281 36.9392 43.5 37.3403 43.5H45.6042C46.0052 43.5 46.3333 43.8281 46.3333 44.2292Z" fill="#50B49F"/>
</svg>
