<svg width="80" height="80" viewBox="0 0 80 80" fill="none" xmlns="http://www.w3.org/2000/svg">
<circle cx="40" cy="40" r="40" fill="#ED1C24" fill-opacity="0.1"/>
<path d="M44.3765 34.7666L40.5994 38.5437L36.8224 34.7666L34.7661 36.8229L38.5432 40.5999L34.7661 44.377L36.8224 46.4333L40.5994 42.6562L44.3765 46.4333L46.4328 44.377L42.6557 40.5999L46.4328 36.8229L44.3765 34.7666ZM40.5994 26.0166C32.5349 26.0166 26.0161 32.5354 26.0161 40.5999C26.0161 48.6645 32.5349 55.1833 40.5994 55.1833C48.664 55.1833 55.1828 48.6645 55.1828 40.5999C55.1828 32.5354 48.664 26.0166 40.5994 26.0166ZM40.5994 52.2666C34.1682 52.2666 28.9328 47.0312 28.9328 40.5999C28.9328 34.1687 34.1682 28.9333 40.5994 28.9333C47.0307 28.9333 52.2661 34.1687 52.2661 40.5999C52.2661 47.0312 47.0307 52.2666 40.5994 52.2666Z" fill="#EA3D2F"/>
</svg>
