<svg width="80" height="80" viewBox="0 0 80 80" fill="none" xmlns="http://www.w3.org/2000/svg">
<circle cx="40" cy="40" r="40" fill="#E3E22A" fill-opacity="0.1"/>
<path d="M46.3333 41.2292C42.3083 41.2292 39.0417 44.4958 39.0417 48.5208C39.0417 52.5458 42.3083 55.8125 46.3333 55.8125C50.3583 55.8125 53.625 52.5458 53.625 48.5208C53.625 44.4958 50.3583 41.2292 46.3333 41.2292ZM48.7396 51.9479L45.6042 48.8125V44.1458H47.0625V48.2146L49.7604 50.9125L48.7396 51.9479ZM47.7917 28.1042H43.1542C42.5417 26.4125 40.9375 25.1875 39.0417 25.1875C37.1458 25.1875 35.5417 26.4125 34.9292 28.1042H30.2917C28.6875 28.1042 27.375 29.4167 27.375 31.0208V52.8958C27.375 54.5 28.6875 55.8125 30.2917 55.8125H39.2021C38.3417 54.9813 37.6417 53.9896 37.1312 52.8958H30.2917V31.0208H33.2083V35.3958H44.875V31.0208H47.7917V38.4292C48.8271 38.575 49.8042 38.8813 50.7083 39.3042V31.0208C50.7083 29.4167 49.3958 28.1042 47.7917 28.1042ZM39.0417 31.0208C38.2396 31.0208 37.5833 30.3646 37.5833 29.5625C37.5833 28.7604 38.2396 28.1042 39.0417 28.1042C39.8438 28.1042 40.5 28.7604 40.5 29.5625C40.5 30.3646 39.8438 31.0208 39.0417 31.0208Z" fill="#E3E22A"/>
</svg>
