<svg width="80" height="80" viewBox="0 0 80 80" fill="none" xmlns="http://www.w3.org/2000/svg">
<circle cx="40" cy="40" r="40" fill="#02A4DA" fill-opacity="0.1"/>
<path d="M50.1248 51.4375H53.6248V54.3541H44.8748V45.6041H47.7915V49.5854C50.4603 47.4416 52.1665 44.175 52.1665 40.5C52.1665 34.5646 47.704 29.65 41.9582 28.9354V25.9896C49.3228 26.7187 55.0832 32.9312 55.0832 40.5C55.0832 44.8604 53.1582 48.7687 50.1248 51.4375ZM28.8332 40.5C28.8332 36.825 30.5394 33.5437 33.2082 31.4146V35.3958H36.1248V26.6458H27.3748V29.5625H30.8748C27.8415 32.2312 25.9165 36.1396 25.9165 40.5C25.9165 48.0687 31.6769 54.2812 39.0415 55.0104V52.0646C33.2957 51.35 28.8332 46.4354 28.8332 40.5ZM46.6832 34.8271L38.429 43.0812L34.3019 38.9541L32.2457 41.0104L38.429 47.1937L48.7394 36.8833L46.6832 34.8271Z" fill="#02A4DA"/>
</svg>
