<svg width="80" height="80" viewBox="0 0 80 80" fill="none" xmlns="http://www.w3.org/2000/svg">
<circle cx="40" cy="40" r="40" fill="#38CB89" fill-opacity="0.1"/>
<path d="M55.1828 30.6541L38.5432 47.3083L32.3599 41.1249L34.4161 39.0687L38.5432 43.1958L53.1265 28.6124L55.1828 30.6541ZM51.9599 38.0041C52.1494 38.8354 52.2661 39.7104 52.2661 40.5999C52.2661 47.0458 47.0453 52.2666 40.5994 52.2666C34.1536 52.2666 28.9328 47.0458 28.9328 40.5999C28.9328 34.1541 34.1536 28.9333 40.5994 28.9333C42.9036 28.9333 45.0328 29.6041 46.8411 30.7562L48.9411 28.6562C46.5786 26.9937 43.7057 26.0166 40.5994 26.0166C32.5494 26.0166 26.0161 32.5499 26.0161 40.5999C26.0161 48.6499 32.5494 55.1833 40.5994 55.1833C48.6494 55.1833 55.1828 48.6499 55.1828 40.5999C55.1828 38.8645 54.8619 37.202 54.3078 35.6562L51.9599 38.0041Z" fill="#38CB89"/>
</svg>
