<svg width="32" height="32" viewBox="0 0 32 32" fill="none" xmlns="http://www.w3.org/2000/svg">
<path fill-rule="evenodd" clip-rule="evenodd" d="M10 30C11.1046 30 12 29.1046 12 28C12 26.8954 11.1046 26 10 26C8.89543 26 8 26.8954 8 28C8 29.1046 8.89543 30 10 30ZM24 30C25.1046 30 26 29.1046 26 28C26 26.8954 25.1046 26 24 26C22.8954 26 22 26.8954 22 28C22 29.1046 22.8954 30 24 30ZM5.82 7H28C28.3081 6.99243 28.6026 7.12738 28.798 7.36577C28.9934 7.60416 29.0679 7.91934 29 8.22L27 17.22C26.8952 17.6852 26.4767 18.0117 26 18H8L8.82 22H26V24H8C7.51724 24.0097 7.09647 23.6731 7 23.2L3.18 4H0V2H4C4.48276 1.99026 4.90353 2.32688 5 2.8L5.82 7ZM7.62 16H25.2L26.75 9H6.22L7.62 16Z" fill="black"/>
</svg>
